<svg width="103" height="103" viewBox="0 0 103 103" fill="none" xmlns="http://www.w3.org/2000/svg">
<path d="M51.5 0C23.1438 0 0 23.1438 0 51.5C0 79.8563 23.1438 103 51.5 103C79.8562 103 103 79.8563 103 51.5C103 23.1438 79.8562 0 51.5 0ZM14.3866 51.5C14.3866 40.8664 18.9737 31.0668 26.2713 24.3948C29.1903 21.6842 34.1943 22.5182 36.2794 26.0628L49.2065 48.3725C50.4575 50.4575 50.4575 52.9595 49.2065 55.0445L36.2794 77.3543C34.1943 81.1073 29.1903 81.7328 26.0628 78.8138C18.9737 71.7247 14.3866 62.1336 14.3866 51.5ZM66.7207 76.9372L53.7935 54.6276C52.5425 52.5425 52.5425 50.0405 53.7935 47.9555L66.7207 25.6457C68.8057 22.1012 73.6012 21.2672 76.7287 23.9777C84.0263 30.6498 88.6134 40.4494 88.6134 51.083C88.6134 61.7166 84.0263 71.5162 76.7287 78.1883C73.6012 81.5243 68.8057 80.6903 66.7207 76.9372Z" fill="#0022FF"/>
</svg>

