<svg width="353" height="103" viewBox="0 0 353 103" fill="none" xmlns="http://www.w3.org/2000/svg">
<path d="M51.5 0C23.1438 0 0 23.1438 0 51.5C0 79.8563 23.1438 103 51.5 103C79.8562 103 103 79.8563 103 51.5C103 23.1438 79.8562 0 51.5 0ZM14.3866 51.5C14.3866 40.8664 18.9737 31.0668 26.2713 24.3948C29.1903 21.6842 34.1943 22.5182 36.2794 26.0628L49.2065 48.3725C50.4575 50.4575 50.4575 52.9595 49.2065 55.0445L36.2794 77.3543C34.1943 81.1073 29.1903 81.7328 26.0628 78.8138C18.9737 71.7247 14.3866 62.1336 14.3866 51.5ZM66.7207 76.9372L53.7935 54.6276C52.5425 52.5425 52.5425 50.0405 53.7935 47.9555L66.7207 25.6457C68.8057 22.1012 73.6012 21.2672 76.7287 23.9777C84.0263 30.6498 88.6134 40.4494 88.6134 51.083C88.6134 61.7166 84.0263 71.5162 76.7287 78.1883C73.6012 81.5243 68.8057 80.6903 66.7207 76.9372Z" fill="white"/>
<path d="M121.085 68.524C119.379 68.524 117.864 68.268 116.541 67.756C115.261 67.244 114.216 66.4973 113.405 65.516C112.595 64.5347 112.083 63.34 111.869 61.932C111.955 60.9507 112.296 60.1827 112.893 59.628C113.533 59.0733 114.323 58.796 115.261 58.796C116.328 58.796 117.181 59.0733 117.821 59.628C118.504 60.1827 119.101 61.2067 119.613 62.7L121.085 67.052L116.733 66.22C117.416 66.348 118.184 66.476 119.037 66.604C119.891 66.6893 120.659 66.732 121.341 66.732C122.195 66.732 122.92 66.54 123.517 66.156C124.157 65.772 124.627 65.26 124.925 64.62C125.267 63.98 125.437 63.3187 125.437 62.636C125.437 61.3133 124.904 60.14 123.837 59.116C122.813 58.0493 121.683 56.9613 120.445 55.852C119.635 55.1267 118.845 54.3587 118.077 53.548C117.309 52.6947 116.669 51.756 116.157 50.732C115.688 49.708 115.453 48.556 115.453 47.276C115.453 45.484 115.859 43.82 116.669 42.284C117.523 40.7053 118.803 39.4467 120.509 38.508C122.216 37.5267 124.371 37.036 126.973 37.036C128.979 37.036 130.621 37.3347 131.901 37.932C133.181 38.4867 134.163 39.2547 134.845 40.236C135.528 41.1747 135.976 42.22 136.189 43.372C136.147 44.268 135.827 44.972 135.229 45.484C134.632 45.996 133.779 46.252 132.669 46.252C131.731 46.252 130.92 45.9533 130.237 45.356C129.555 44.716 128.915 43.7133 128.317 42.348L126.717 38.508L131.069 39.084C130.6 39.084 130.045 39.0413 129.405 38.956C128.765 38.8707 128.211 38.828 127.741 38.828C126.376 38.828 125.352 39.3187 124.669 40.3C123.987 41.2387 123.645 42.1987 123.645 43.18C123.645 44.4173 124.136 45.5907 125.117 46.7C126.099 47.7667 127.187 48.8547 128.381 49.964C129.32 50.8173 130.216 51.7133 131.069 52.652C131.965 53.548 132.691 54.5293 133.245 55.596C133.843 56.62 134.141 57.772 134.141 59.052C134.141 60.6733 133.693 62.2093 132.797 63.66C131.944 65.1107 130.557 66.284 128.637 67.18C126.717 68.076 124.2 68.524 121.085 68.524ZM148.641 68.524C146.636 68.524 144.822 68.076 143.201 67.18C141.58 66.284 140.3 64.9613 139.361 63.212C138.422 61.4627 137.953 59.308 137.953 56.748C137.953 54.3587 138.38 52.012 139.233 49.708C140.129 47.3613 141.388 45.2493 143.009 43.372C144.63 41.452 146.55 39.916 148.769 38.764C151.03 37.612 153.548 37.036 156.321 37.036C158.838 37.036 160.822 37.5907 162.273 38.7C163.724 39.7667 164.449 41.1747 164.449 42.924C164.449 44.46 163.98 45.868 163.041 47.148C162.102 48.3853 160.716 49.4947 158.881 50.476C157.046 51.4573 154.785 52.3533 152.097 53.164C149.409 53.9747 146.337 54.7427 142.881 55.468V54.188C146.636 53.2067 149.494 52.0973 151.457 50.86C153.462 49.6227 154.828 48.2573 155.553 46.764C156.278 45.2707 156.641 43.6493 156.641 41.9C156.641 40.7907 156.428 40.044 156.001 39.66C155.574 39.276 155.084 39.084 154.529 39.084C153.889 39.084 153.142 39.4467 152.289 40.172C151.478 40.8973 150.689 41.9427 149.921 43.308C149.196 44.6733 148.577 46.2947 148.065 48.172C147.596 50.0493 147.361 52.14 147.361 54.444C147.361 56.9187 148.022 58.7747 149.345 60.012C150.668 61.2493 152.204 61.868 153.953 61.868C154.806 61.868 155.681 61.74 156.577 61.484C157.473 61.1853 158.326 60.7587 159.137 60.204C159.99 59.6067 160.737 58.8813 161.377 58.028L162.465 58.732C161.782 60.268 161.014 61.6547 160.161 62.892C159.35 64.0867 158.412 65.1107 157.345 65.964C156.278 66.7747 155.02 67.3933 153.569 67.82C152.161 68.2893 150.518 68.524 148.641 68.524ZM172.502 68.524C171.35 68.524 170.219 68.2467 169.11 67.692C168.043 67.1373 167.169 66.2627 166.486 65.068C165.803 63.8307 165.462 62.252 165.462 60.332C165.462 58.3693 165.867 56.3213 166.678 54.188C167.489 52.0547 168.577 49.9853 169.942 47.98C171.307 45.932 172.865 44.0973 174.614 42.476C176.363 40.812 178.177 39.4893 180.054 38.508C181.974 37.5267 183.851 37.036 185.686 37.036C186.881 37.036 188.033 37.2067 189.142 37.548C190.251 37.8893 191.254 38.38 192.15 39.02C193.089 39.66 193.835 40.4493 194.39 41.388L188.31 44.012C187.713 43.2013 187.073 42.5187 186.39 41.964C185.707 41.4093 185.003 41.132 184.278 41.132C183.638 41.132 183.019 41.2813 182.422 41.58C181.867 41.836 181.334 42.1987 180.822 42.668C180.31 43.1373 179.819 43.7133 179.35 44.396C178.454 45.676 177.686 47.1693 177.046 48.876C176.449 50.5827 175.979 52.3107 175.638 54.06C175.339 55.8093 175.19 57.388 175.19 58.796C175.19 59.9907 175.339 60.972 175.638 61.74C175.937 62.508 176.555 62.892 177.494 62.892C178.006 62.892 178.603 62.7427 179.286 62.444C179.969 62.1453 180.694 61.6333 181.462 60.908C182.273 60.14 183.126 59.0947 184.022 57.772L183.83 59.948H183.51C182.87 61.0573 182.017 62.2947 180.95 63.66C179.926 64.9827 178.689 66.1347 177.238 67.116C175.83 68.0547 174.251 68.524 172.502 68.524ZM187.286 68.524C185.793 68.524 184.555 68.0547 183.574 67.116C182.593 66.1773 182.102 64.94 182.102 63.404C182.102 63.148 182.123 62.8707 182.166 62.572C182.209 62.2733 182.251 61.9747 182.294 61.676C182.379 61.3347 182.465 60.9933 182.55 60.652H182.486L186.39 41.772H186.966L195.862 37.036L196.886 37.804L192.278 59.82C192.235 60.204 192.171 60.588 192.086 60.972C192.001 61.356 191.958 61.6973 191.958 61.996C191.958 62.3373 192.022 62.572 192.15 62.7C192.321 62.828 192.534 62.892 192.79 62.892C193.174 62.892 193.686 62.6573 194.326 62.188C194.966 61.7187 195.691 60.9293 196.502 59.82L197.718 60.588C197.035 61.868 196.161 63.1267 195.094 64.364C194.07 65.5587 192.897 66.5613 191.574 67.372C190.251 68.14 188.822 68.524 187.286 68.524ZM208.773 68.524C207.066 68.524 205.552 68.268 204.229 67.756C202.949 67.244 201.904 66.4973 201.093 65.516C200.282 64.5347 199.77 63.34 199.557 61.932C199.642 60.9507 199.984 60.1827 200.581 59.628C201.221 59.0733 202.01 58.796 202.949 58.796C204.016 58.796 204.869 59.0733 205.509 59.628C206.192 60.1827 206.789 61.2067 207.301 62.7L208.773 67.052L204.421 66.22C205.104 66.348 205.872 66.476 206.725 66.604C207.578 66.6893 208.346 66.732 209.029 66.732C209.882 66.732 210.608 66.54 211.205 66.156C211.845 65.772 212.314 65.26 212.613 64.62C212.954 63.98 213.125 63.3187 213.125 62.636C213.125 61.3133 212.592 60.14 211.525 59.116C210.501 58.0493 209.37 56.9613 208.133 55.852C207.322 55.1267 206.533 54.3587 205.765 53.548C204.997 52.6947 204.357 51.756 203.845 50.732C203.376 49.708 203.141 48.556 203.141 47.276C203.141 45.484 203.546 43.82 204.357 42.284C205.21 40.7053 206.49 39.4467 208.197 38.508C209.904 37.5267 212.058 37.036 214.661 37.036C216.666 37.036 218.309 37.3347 219.589 37.932C220.869 38.4867 221.85 39.2547 222.533 40.236C223.216 41.1747 223.664 42.22 223.877 43.372C223.834 44.268 223.514 44.972 222.917 45.484C222.32 45.996 221.466 46.252 220.357 46.252C219.418 46.252 218.608 45.9533 217.925 45.356C217.242 44.716 216.602 43.7133 216.005 42.348L214.405 38.508L218.757 39.084C218.288 39.084 217.733 39.0413 217.093 38.956C216.453 38.8707 215.898 38.828 215.429 38.828C214.064 38.828 213.04 39.3187 212.357 40.3C211.674 41.2387 211.333 42.1987 211.333 43.18C211.333 44.4173 211.824 45.5907 212.805 46.7C213.786 47.7667 214.874 48.8547 216.069 49.964C217.008 50.8173 217.904 51.7133 218.757 52.652C219.653 53.548 220.378 54.5293 220.933 55.596C221.53 56.62 221.829 57.772 221.829 59.052C221.829 60.6733 221.381 62.2093 220.485 63.66C219.632 65.1107 218.245 66.284 216.325 67.18C214.405 68.076 211.888 68.524 208.773 68.524ZM226.602 68.012L225.578 67.244L230.89 42.412L231.978 43.308L226.858 41.772L227.114 40.62L240.298 37.036L241.322 37.804L239.978 44.46L239.85 45.1L237.93 54.316C237.503 56.4067 237.077 58.5827 236.65 60.844C236.266 63.1053 236.01 65.324 235.882 67.5L226.602 68.012ZM247.85 68.524C246.357 68.524 245.162 68.14 244.266 67.372C243.413 66.604 242.986 65.58 242.986 64.3C242.986 63.404 243.114 62.3587 243.37 61.164C243.626 59.9267 243.839 58.9667 244.01 58.284L246.186 48.812C246.399 47.916 246.57 47.0627 246.698 46.252C246.869 45.4413 246.954 44.844 246.954 44.46C246.954 43.9907 246.826 43.628 246.57 43.372C246.314 43.0733 245.93 42.924 245.418 42.924C244.949 42.924 244.373 43.052 243.69 43.308C243.05 43.564 242.346 43.9693 241.578 44.524C240.853 45.036 240.085 45.6973 239.274 46.508L238.186 45.484H238.634C240.213 43.692 241.706 42.1773 243.114 40.94C244.565 39.66 245.994 38.7 247.402 38.06C248.853 37.3773 250.367 37.036 251.946 37.036C253.354 37.036 254.506 37.4627 255.402 38.316C256.341 39.1693 256.81 40.492 256.81 42.284C256.81 43.2227 256.725 44.1827 256.554 45.164C256.426 46.1027 256.255 47.0627 256.042 48.044L253.482 59.052C253.311 59.7347 253.183 60.332 253.098 60.844C253.013 61.3133 252.97 61.6973 252.97 61.996C252.97 62.3373 253.055 62.572 253.226 62.7C253.397 62.828 253.61 62.892 253.866 62.892C254.25 62.892 254.762 62.6573 255.402 62.188C256.085 61.7187 256.831 60.9293 257.642 59.82L258.858 60.588C258.175 61.868 257.301 63.1267 256.234 64.364C255.167 65.5587 253.93 66.5613 252.522 67.372C251.114 68.14 249.557 68.524 247.85 68.524ZM273.428 68.524C271.295 68.524 269.29 68.1187 267.412 67.308C265.535 66.4547 264.02 65.1533 262.868 63.404C261.716 61.6547 261.14 59.436 261.14 56.748C261.14 54.316 261.503 51.9267 262.228 49.58C262.996 47.2333 264.127 45.1213 265.62 43.244C267.114 41.324 268.948 39.8093 271.124 38.7C273.343 37.5907 275.903 37.036 278.804 37.036C280.938 37.036 282.943 37.4627 284.82 38.316C286.698 39.1267 288.212 40.4067 289.364 42.156C290.516 43.8627 291.092 46.0813 291.092 48.812C291.092 51.244 290.708 53.6333 289.94 55.98C289.215 58.3267 288.106 60.46 286.612 62.38C285.119 64.2573 283.263 65.7507 281.044 66.86C278.868 67.9693 276.33 68.524 273.428 68.524ZM273.428 66.732C274.324 66.732 275.178 66.2627 275.988 65.324C276.799 64.3427 277.524 63.0413 278.164 61.42C278.847 59.7987 279.423 57.9853 279.892 55.98C280.404 53.932 280.788 51.8627 281.044 49.772C281.343 47.6387 281.492 45.612 281.492 43.692C281.492 41.7293 281.236 40.428 280.724 39.788C280.255 39.148 279.615 38.828 278.804 38.828C277.908 38.828 277.055 39.3187 276.244 40.3C275.434 41.2387 274.687 42.54 274.004 44.204C273.364 45.8253 272.788 47.6387 272.276 49.644C271.807 51.6493 271.423 53.7187 271.124 55.852C270.868 57.9427 270.74 59.948 270.74 61.868C270.74 63.8307 270.975 65.132 271.444 65.772C271.956 66.412 272.618 66.732 273.428 66.732ZM293.262 67.244L298.958 39.98C299.428 37.7613 299.854 35.5213 300.238 33.26C300.665 30.956 301.028 28.6947 301.326 26.476L302.926 27.372L297.678 25.836L297.934 24.684L311.246 21.1L312.206 21.868L305.486 54.316C305.188 55.724 304.889 57.1747 304.59 58.668C304.334 60.1187 304.1 61.5907 303.886 63.084C303.673 64.5773 303.524 66.0493 303.438 67.5L294.286 68.012L293.262 67.244ZM323.534 67.5C322.724 67.7987 321.87 68.0333 320.974 68.204C320.078 68.3747 319.012 68.46 317.774 68.46C315.684 68.46 313.956 68.0973 312.59 67.372C311.268 66.604 310.265 64.9827 309.582 62.508L307.918 56.492C307.62 55.4253 307.364 54.5933 307.15 53.996C306.937 53.3987 306.702 52.9293 306.446 52.588C306.19 52.2467 305.806 51.9693 305.294 51.756L304.846 51.564V51.308H304.974L305.678 50.668L320.27 37.356C321.294 37.4413 322.254 37.8893 323.15 38.7C324.046 39.5107 324.494 40.5133 324.494 41.708C324.494 43.5427 323.897 44.8653 322.702 45.676C321.55 46.4867 319.822 47.2333 317.518 47.916L305.678 51.436L305.87 50.924L308.558 51.116C310.18 51.2013 311.588 51.5 312.782 52.012C313.977 52.524 315.001 53.228 315.854 54.124C316.708 54.9773 317.39 56.0653 317.902 57.388L319.758 61.996C320.142 62.9347 320.526 63.8093 320.91 64.62C321.337 65.388 321.892 65.836 322.574 65.964L323.79 66.22L323.534 67.5ZM336.203 68.524C334.198 68.524 332.385 68.076 330.763 67.18C329.142 66.284 327.862 64.9613 326.923 63.212C325.985 61.4627 325.515 59.308 325.515 56.748C325.515 54.3587 325.942 52.012 326.795 49.708C327.691 47.3613 328.95 45.2493 330.571 43.372C332.193 41.452 334.113 39.916 336.331 38.764C338.593 37.612 341.11 37.036 343.883 37.036C346.401 37.036 348.385 37.5907 349.835 38.7C351.286 39.7667 352.011 41.1747 352.011 42.924C352.011 44.46 351.542 45.868 350.603 47.148C349.665 48.3853 348.278 49.4947 346.443 50.476C344.609 51.4573 342.347 52.3533 339.659 53.164C336.971 53.9747 333.899 54.7427 330.443 55.468V54.188C334.198 53.2067 337.057 52.0973 339.019 50.86C341.025 49.6227 342.39 48.2573 343.115 46.764C343.841 45.2707 344.203 43.6493 344.203 41.9C344.203 40.7907 343.99 40.044 343.563 39.66C343.137 39.276 342.646 39.084 342.091 39.084C341.451 39.084 340.705 39.4467 339.851 40.172C339.041 40.8973 338.251 41.9427 337.483 43.308C336.758 44.6733 336.139 46.2947 335.627 48.172C335.158 50.0493 334.923 52.14 334.923 54.444C334.923 56.9187 335.585 58.7747 336.907 60.012C338.23 61.2493 339.766 61.868 341.515 61.868C342.369 61.868 343.243 61.74 344.139 61.484C345.035 61.1853 345.889 60.7587 346.699 60.204C347.553 59.6067 348.299 58.8813 348.939 58.028L350.027 58.732C349.345 60.268 348.577 61.6547 347.723 62.892C346.913 64.0867 345.974 65.1107 344.907 65.964C343.841 66.7747 342.582 67.3933 341.131 67.82C339.723 68.2893 338.081 68.524 336.203 68.524Z" fill="white"/>
</svg>

